<?xml version="1.0" standalone="no"?>
<!DOCTYPE svg PUBLIC "-//W3C//DTD SVG 20010904//EN"
 "http://www.w3.org/TR/2001/REC-SVG-20010904/DTD/svg10.dtd">
<svg version="1.0" xmlns="http://www.w3.org/2000/svg"
 width="600" height="1200" viewBox="0 0 466.000000 466.000000"
 preserveAspectRatio="xMidYMid meet">

<g transform="translate(0.000000,466.000000) scale(0.100000,-0.100000)"
fill="#000000" stroke="none">
<path d="M2221 3765 c-98 -28 -162 -83 -207 -179 -47 -101 -25 -248 49 -332
42 -48 128 -97 190 -108 28 -5 40 -14 48 -33 14 -38 1 -91 -25 -99 -11 -4
-186 -112 -387 -239 -202 -128 -376 -238 -388 -244 -37 -20 -23 -26 47 -21 66
5 69 7 317 164 138 88 279 178 315 201 91 59 110 68 155 74 l40 6 3 122 c3
139 12 126 -95 137 -91 9 -174 68 -207 148 -20 48 -20 148 0 196 8 20 29 52
47 70 141 147 372 83 423 -117 10 -41 14 -46 40 -46 27 0 29 2 28 41 0 22 -11
61 -23 87 -67 137 -227 212 -370 172z"/>
<path d="M2563 2894 c-12 -31 19 -66 109 -124 90 -58 95 -60 158 -59 54 0 62
2 47 12 -127 83 -292 187 -299 187 -5 0 -11 -7 -15 -16z"/>
<path d="M2267 2730 c-142 -55 -196 -179 -132 -305 13 -27 23 -49 22 -50 -1 0
-33 -8 -72 -18 -38 -10 -81 -26 -95 -36 -92 -67 -93 -194 -2 -253 20 -13 71
-37 112 -52 98 -38 137 -62 155 -96 23 -44 18 -69 -18 -105 -46 -46 -126 -63
-200 -41 -54 16 -107 58 -88 70 6 4 19 2 30 -4 28 -15 69 4 82 37 29 77 -80
128 -135 62 -48 -57 -24 -138 50 -175 31 -15 61 -19 144 -19 97 0 109 2 152
28 60 35 78 69 78 148 0 61 -1 64 -43 104 -25 24 -68 51 -103 64 -163 62 -194
86 -194 147 0 43 26 69 82 85 67 18 144 7 176 -24 32 -32 26 -41 -17 -26 -44
16 -81 -9 -81 -54 0 -38 7 -50 37 -66 35 -18 63 -13 94 18 55 56 34 125 -56
185 -44 29 -62 49 -81 89 -13 29 -24 61 -24 72 0 123 120 214 267 202 145 -11
229 -119 202 -256 -14 -69 -48 -105 -107 -115 -53 -8 -52 -30 1 -34 l37 -3 0
-227 c0 -125 5 -243 10 -263 31 -111 172 -115 243 -7 27 43 35 78 17 78 -6 0
-26 -22 -46 -50 -41 -57 -71 -72 -91 -44 -10 14 -13 71 -11 264 l3 245 67 5
c103 8 110 31 10 34 -32 2 -64 6 -70 10 -8 5 -12 37 -12 90 0 111 -20 173 -71
224 -77 77 -216 104 -322 62z"/>
<path d="M3106 2675 l-17 -55 -60 0 c-32 0 -59 -4 -59 -8 0 -4 12 -15 28 -25
65 -41 65 -40 48 -98 -9 -29 -14 -54 -12 -56 2 -2 24 10 49 28 l46 32 52 -38
c38 -27 50 -32 45 -19 -4 11 -13 39 -19 62 -11 42 -11 45 15 63 15 11 37 28
50 39 l23 19 -67 1 -66 0 -12 50 c-7 28 -15 52 -19 55 -4 2 -15 -20 -25 -50z"/>
<path d="M930 2630 c-14 -4 -54 -8 -89 -9 -68 -1 -75 -17 -11 -23 l35 -3 3
-394 c2 -425 4 -411 -50 -411 -16 0 -28 -4 -28 -10 0 -17 185 -13 200 5 10 12
17 11 49 -11 21 -13 60 -27 87 -30 156 -19 256 98 257 301 0 50 -6 110 -12
135 -32 115 -106 182 -200 182 -56 -1 -124 -31 -141 -62 -6 -11 -17 -20 -25
-20 -12 0 -15 31 -17 177 -3 192 -3 191 -58 173z m270 -340 c38 -40 55 -114
54 -235 0 -118 -17 -206 -47 -241 -30 -35 -94 -43 -136 -18 -94 55 -118 291
-46 435 47 92 121 117 175 59z"/>
<path d="M647 2500 c-75 -29 -113 -64 -148 -135 -28 -58 -32 -75 -32 -149 0
-67 5 -93 25 -137 42 -93 76 -122 198 -173 60 -25 112 -46 115 -46 3 0 5 10 5
23 0 36 -37 86 -77 104 -149 68 -211 183 -169 310 29 88 96 139 191 145 38 3
40 5 43 41 l3 37 -53 0 c-29 -1 -75 -9 -101 -20z"/>
<path d="M1512 2353 c2 -12 13 -17 38 -17 l35 -1 0 -280 0 -280 -37 1 c-30 1
-38 -2 -38 -16 0 -16 13 -18 131 -18 114 0 130 2 127 16 -2 11 -14 16 -38 16
l-35 1 0 280 0 280 35 1 c25 0 36 5 38 17 3 15 -10 17 -128 17 -118 0 -131 -2
-128 -17z"/>
<path d="M3065 2361 c-65 -17 -105 -41 -125 -73 -46 -75 -9 -157 71 -158 45 0
69 25 69 73 0 28 -6 40 -26 54 -25 16 -28 16 -57 0 -53 -31 -48 6 6 47 34 25
140 33 177 14 40 -21 70 -92 70 -165 0 -73 10 -67 -142 -82 -136 -14 -208 -55
-229 -133 -31 -116 77 -209 224 -194 67 7 110 27 133 61 21 32 32 32 40 0 14
-55 85 -82 132 -49 49 34 78 135 61 214 -6 27 -14 50 -19 50 -4 0 -10 -37 -12
-82 -6 -91 -23 -140 -47 -136 -14 3 -17 32 -22 203 -3 110 -11 216 -18 237
-15 46 -61 92 -109 106 -53 16 -142 22 -177 13z m180 -391 c0 -121 -50 -190
-136 -190 -105 0 -143 144 -60 224 33 32 81 45 151 43 l45 -2 0 -75z"/>
<path d="M3845 2355 c-22 -8 -54 -30 -71 -49 -17 -20 -34 -36 -37 -36 -3 0 -7
17 -9 38 l-3 37 -99 -2 c-54 -1 -101 -4 -104 -7 -9 -10 6 -19 45 -25 l38 -6 3
-245 c2 -221 1 -246 -15 -257 -9 -7 -27 -13 -40 -13 -13 0 -23 -4 -23 -10 0
-6 53 -10 140 -10 81 0 140 4 140 9 0 6 -17 11 -37 13 l-38 3 0 185 0 185 33
67 c38 78 67 100 125 96 53 -4 59 -31 8 -35 -60 -5 -86 -46 -60 -94 26 -50
116 -43 144 11 21 40 19 73 -7 105 -17 22 -75 57 -90 55 -2 -1 -21 -7 -43 -15z"/>
<path d="M3806 2052 c5 -5 90 -59 189 -121 212 -133 245 -163 245 -221 0 -54
-23 -96 -63 -117 -26 -14 -66 -18 -203 -21 -163 -4 -171 -5 -167 -23 12 -43
38 -49 211 -49 183 0 198 4 243 68 52 74 62 147 30 218 -22 48 -52 72 -232
187 -134 86 -136 87 -199 87 -35 0 -60 -4 -54 -8z"/>
<path d="M573 1745 c-3 -9 -3 -40 -1 -70 5 -61 54 -145 96 -164 16 -8 374 -11
1147 -11 1205 0 1156 -2 1102 48 l-23 22 -1084 2 c-908 3 -1089 5 -1112 17
-39 20 -72 92 -64 136 7 34 6 35 -24 35 -18 0 -33 -6 -37 -15z"/>
<path d="M3664 1693 c-30 -6 -58 -38 -90 -103 -46 -95 -102 -141 -193 -161
-135 -29 -260 60 -280 200 -5 38 -10 47 -29 49 -13 2 -30 -2 -39 -9 -22 -19
-11 -107 22 -175 93 -190 393 -221 548 -57 29 31 120 239 111 254 -5 9 -13 9
-50 2z"/>
</g>
</svg>
