<?xml version="1.0" standalone="no"?>
<!DOCTYPE svg PUBLIC "-//W3C//DTD SVG 20010904//EN"
 "http://www.w3.org/TR/2001/REC-SVG-20010904/DTD/svg10.dtd">
<svg version="1.0" xmlns="http://www.w3.org/2000/svg"
 width="1024.000000pt" height="1024.000000pt" viewBox="0 0 1024.000000 1024.000000"
 preserveAspectRatio="xMidYMid meet">

<g transform="translate(0.000000,1024.000000) scale(0.100000,-0.100000)"
fill="#000000" stroke="none">
<path d="M4940 8291 c-147 -28 -275 -97 -376 -203 -77 -81 -119 -148 -161
-254 -25 -64 -27 -79 -28 -224 0 -136 3 -163 23 -225 39 -116 81 -185 162
-265 112 -112 251 -185 397 -210 41 -6 77 -19 86 -28 18 -21 28 -111 19 -177
l-7 -50 -70 -36 c-38 -19 -189 -111 -335 -204 -146 -92 -371 -235 -500 -317
-129 -82 -354 -225 -500 -318 -146 -93 -300 -191 -343 -217 l-77 -48 145 -3
144 -3 68 44 c37 24 129 83 203 130 74 47 173 110 220 140 47 30 216 136 375
237 160 101 319 202 355 225 66 43 143 91 215 136 66 42 122 59 189 59 97 0
92 -19 88 326 -1 150 -5 205 -16 219 -11 15 -33 20 -122 26 -60 4 -131 13
-159 20 -139 34 -285 146 -348 266 -38 73 -67 194 -67 277 0 69 33 195 67 259
71 130 216 231 382 264 163 32 332 -15 455 -128 94 -85 160 -206 173 -316 4
-41 12 -58 31 -73 30 -24 79 -26 110 -4 20 14 22 21 17 67 -10 87 -26 150 -53
202 -92 184 -264 336 -442 390 -63 19 -253 28 -320 16z"/>
<path d="M5635 6360 c-12 -86 23 -144 120 -200 22 -13 106 -65 186 -117 l147
-94 140 3 140 3 -321 206 c-332 213 -391 249 -400 249 -3 0 -8 -22 -12 -50z"/>
<path d="M5095 6036 c-198 -46 -359 -158 -423 -294 -23 -49 -27 -73 -30 -170
-4 -129 9 -187 65 -279 18 -30 33 -61 33 -68 0 -9 -20 -16 -57 -21 -73 -8
-212 -48 -265 -75 -58 -29 -140 -110 -166 -162 -65 -131 -38 -288 67 -387 57
-53 129 -90 308 -159 180 -68 235 -97 286 -147 89 -87 93 -218 10 -292 -143
-127 -451 -136 -591 -16 -54 46 -65 66 -49 88 12 17 15 16 50 -4 29 -17 48
-21 78 -17 83 11 132 70 126 153 -6 92 -61 134 -177 137 -77 2 -106 -13 -148
-73 -53 -78 -50 -180 8 -270 78 -121 274 -176 535 -151 153 15 236 46 316 118
67 61 91 120 96 243 7 144 -4 180 -76 251 -72 70 -156 118 -313 175 -222 82
-300 129 -338 205 -29 55 -27 145 3 190 47 72 208 118 365 105 110 -9 174 -42
208 -109 21 -40 9 -48 -39 -27 -86 39 -172 15 -202 -56 -40 -97 9 -189 113
-212 158 -36 274 121 216 290 -19 59 -63 103 -150 155 -90 53 -167 135 -207
220 -29 62 -32 76 -32 168 0 88 3 107 27 158 57 122 196 224 358 262 239 55
510 -56 600 -246 58 -124 61 -261 9 -400 -43 -111 -85 -143 -215 -162 -74 -10
-89 -16 -92 -32 -6 -30 26 -45 99 -45 42 0 70 -5 77 -13 8 -9 12 -182 14 -543
l3 -529 24 -45 c70 -134 187 -175 342 -119 78 28 157 103 207 197 40 76 40
115 0 120 -23 3 -32 -6 -78 -77 -65 -101 -119 -151 -163 -151 -44 0 -57 11
-67 56 -5 21 -10 271 -10 555 0 429 2 518 14 535 13 17 29 19 154 22 116 3
141 6 146 19 13 33 -12 41 -150 45 -115 3 -138 6 -149 21 -8 12 -14 77 -18
205 -4 160 -8 199 -29 269 -57 190 -178 305 -393 373 -89 28 -245 35 -330 16z"/>
<path d="M6863 5990 c-6 -14 -25 -73 -43 -132 l-33 -107 -139 -3 -139 -3 93
-68 c51 -37 101 -74 112 -81 18 -12 17 -17 -23 -136 -22 -67 -41 -127 -41
-132 0 -11 31 10 139 89 52 39 88 60 95 54 88 -67 208 -153 210 -150 2 2 -11
51 -29 109 -51 159 -53 152 71 240 l105 75 -141 5 -141 5 -43 130 c-39 116
-44 127 -53 105z"/>
<path d="M2075 5785 c-27 -7 -107 -14 -176 -14 -69 -1 -141 -6 -159 -13 -31
-10 -32 -12 -15 -25 11 -7 44 -13 77 -13 49 0 63 -4 83 -25 l25 -24 0 -849 c0
-844 0 -849 -21 -868 -14 -12 -40 -19 -84 -22 -72 -5 -100 -23 -65 -42 14 -8
83 -10 211 -8 l191 3 29 33 c35 39 48 40 83 3 15 -16 56 -42 89 -57 52 -24 78
-29 168 -32 225 -9 355 67 449 263 72 149 98 321 79 514 -28 292 -121 462
-302 551 -60 29 -79 34 -150 34 -138 1 -239 -42 -324 -138 -31 -35 -48 -47
-65 -44 l-23 3 -3 380 c-2 343 -4 381 -19 393 -9 6 -19 11 -22 11 -3 -1 -28
-7 -56 -14z m505 -701 c157 -79 224 -456 155 -869 -31 -180 -58 -236 -136
-275 -48 -25 -172 -27 -227 -4 -81 33 -148 129 -184 260 -30 110 -32 390 -4
509 69 299 238 460 396 379z"/>
<path d="M1575 5539 c-27 -5 -84 -20 -125 -34 -264 -90 -412 -295 -427 -590
-12 -243 62 -441 221 -585 57 -52 110 -82 211 -120 50 -18 141 -55 203 -82 63
-26 116 -48 118 -48 10 0 3 81 -11 127 -23 77 -75 123 -210 188 -218 105 -325
250 -342 465 -10 138 47 291 142 377 78 71 81 73 148 100 45 19 87 27 155 31
l92 5 0 87 0 88 -62 0 c-35 0 -85 -4 -113 -9z"/>
<path d="M3313 5194 c-2 -7 -3 -23 -1 -36 3 -22 6 -23 70 -20 120 6 108 72
108 -617 0 -537 -2 -600 -16 -612 -11 -9 -40 -12 -90 -10 l-74 2 0 -35 c0 -46
11 -49 160 -39 63 5 176 5 250 1 148 -8 166 -6 175 21 13 43 -3 52 -85 49 -43
-2 -82 1 -87 5 -4 5 -8 281 -8 613 0 526 2 606 15 615 9 6 43 7 82 4 61 -6 68
-4 78 15 7 13 8 26 1 37 -9 16 -35 18 -291 18 -212 1 -283 -2 -287 -11z"/>
<path d="M6725 5186 c-136 -31 -254 -113 -291 -201 -17 -40 -18 -124 -3 -178
14 -53 77 -112 135 -126 116 -30 205 37 205 154 0 139 -126 195 -229 102 -17
-16 -25 -18 -34 -9 -15 15 -1 47 43 96 50 57 98 77 216 88 166 15 247 -11 304
-97 51 -79 62 -121 67 -271 4 -131 3 -143 -14 -152 -20 -10 -161 -27 -344 -42
-58 -4 -135 -18 -172 -29 -129 -41 -248 -145 -278 -244 -7 -23 -12 -74 -12
-114 1 -131 72 -231 210 -296 66 -32 69 -32 222 -32 221 0 286 25 366 141 21
30 42 53 48 51 6 -2 20 -29 31 -60 31 -85 77 -127 157 -141 58 -11 111 9 162
59 57 57 93 134 114 241 14 71 14 95 4 157 -14 80 -42 167 -54 167 -4 0 -8
-42 -8 -92 0 -95 -19 -234 -41 -308 -12 -41 -58 -100 -76 -100 -5 0 -17 6 -26
13 -15 11 -17 51 -21 392 -4 371 -11 461 -44 570 -27 89 -89 168 -161 205
-114 58 -348 85 -476 56z m406 -702 c17 -20 17 -218 0 -289 -27 -113 -100
-222 -176 -263 -42 -22 -179 -23 -220 0 -89 48 -130 126 -130 248 0 100 22
157 86 221 70 70 157 95 335 98 72 1 94 -2 105 -15z"/>
<path d="M8475 5191 c-76 -20 -137 -67 -227 -175 -35 -41 -48 -27 -48 49 0 96
1 96 -250 87 -202 -7 -205 -7 -208 -29 -4 -25 4 -28 100 -38 33 -4 62 -13 70
-22 10 -13 13 -122 13 -549 0 -484 -2 -535 -17 -550 -9 -9 -47 -22 -85 -28
-58 -9 -68 -14 -68 -31 0 -20 6 -20 309 -17 171 1 312 4 314 7 3 2 2 11 -1 18
-4 10 -30 17 -82 22 -114 10 -108 -16 -96 412 10 386 13 406 72 550 37 87 93
162 150 200 78 52 229 38 229 -20 0 -30 -16 -37 -87 -37 -73 0 -116 -26 -138
-84 -44 -114 70 -225 202 -196 90 20 127 59 155 163 11 42 10 54 -6 100 -25
70 -47 99 -104 136 -52 33 -139 48 -197 32z"/>
<path d="M8346 4521 c8 -9 658 -426 769 -494 79 -48 147 -105 174 -145 23 -33
26 -46 26 -132 0 -85 -3 -100 -27 -140 -34 -58 -60 -82 -128 -117 l-55 -28
-374 -3 -373 -4 5 -34 c8 -47 39 -88 84 -110 35 -18 66 -19 398 -19 l360 0 47
32 c170 119 256 356 198 546 -36 115 -116 199 -303 317 -48 30 -123 78 -165
105 -42 28 -143 92 -223 143 l-147 92 -138 0 c-87 0 -134 -4 -128 -9z"/>
<path d="M1255 3839 c-12 -37 -6 -189 9 -242 29 -100 137 -250 205 -284 34
-17 142 -18 2509 -21 2296 -2 2473 -1 2479 14 10 26 -36 101 -76 127 l-36 22
-2380 5 -2380 5 -53 29 c-89 50 -136 134 -137 246 0 36 3 77 8 93 l7 27 -74 0
c-67 0 -75 -2 -81 -21z"/>
<path d="M8048 3717 c-80 -26 -159 -120 -203 -243 -21 -58 -105 -173 -158
-215 -217 -175 -530 -171 -718 8 -91 87 -149 206 -149 308 0 54 -17 103 -40
115 -45 24 -107 5 -135 -42 -49 -84 40 -368 159 -504 164 -187 477 -267 760
-194 162 41 283 120 390 252 43 53 208 441 210 493 1 28 -1 30 -39 32 -22 1
-57 -3 -77 -10z"/>
</g>
</svg>
