<?xml version="1.0" standalone="no"?>
<!DOCTYPE svg PUBLIC "-//W3C//DTD SVG 20010904//EN"
 "http://www.w3.org/TR/2001/REC-SVG-20010904/DTD/svg10.dtd">
<svg version="1.0" xmlns="http://www.w3.org/2000/svg"
 width="2000.000000pt" height="2000.000000pt" viewBox="0 0 2000.000000 2000.000000"
 preserveAspectRatio="xMidYMid meet">

<g transform="translate(0.000000,2000.000000) scale(0.100000,-0.100000)"
fill="#000000" stroke="none">
<path d="M9650 16665 c-100 -16 -169 -34 -282 -74 -131 -46 -150 -55 -198 -85
-25 -16 -67 -42 -95 -59 -160 -99 -344 -293 -457 -482 -79 -132 -150 -314
-179 -460 -19 -94 -19 -464 0 -560 78 -408 284 -726 598 -929 220 -141 432
-225 648 -256 88 -12 131 -26 156 -50 30 -28 44 -117 42 -271 -2 -212 -15
-236 -155 -284 -50 -17 -220 -118 -577 -345 -46 -29 -187 -117 -228 -142 -15
-10 -80 -51 -143 -93 -145 -94 -335 -215 -560 -357 -96 -60 -207 -131 -247
-157 -39 -25 -115 -73 -168 -106 -53 -33 -142 -90 -198 -126 -56 -36 -214
-137 -352 -224 -298 -188 -445 -281 -465 -295 -14 -9 -562 -357 -702 -446 -32
-20 -55 -40 -52 -45 3 -5 135 -9 294 -9 l289 0 163 104 c90 58 183 117 208
132 25 15 90 57 145 93 97 64 164 106 319 201 40 25 108 68 150 95 257 167
317 205 320 205 3 0 69 42 148 93 79 52 217 140 308 197 91 57 208 131 260
166 52 34 145 92 205 129 61 37 119 75 130 85 11 10 47 31 80 46 33 15 80 44
105 65 25 20 68 50 96 66 27 15 84 50 125 77 196 128 225 146 239 146 8 0 20
8 26 18 10 16 58 43 159 87 73 33 139 45 252 45 110 0 113 1 145 29 l33 29 0
504 c0 536 -3 576 -47 599 -47 25 -128 39 -233 39 -127 0 -285 16 -299 30 -6
6 -22 10 -36 10 -66 0 -267 85 -374 158 -195 135 -352 325 -426 517 -22 57
-48 168 -43 181 3 8 1 20 -5 27 -14 16 -32 152 -32 241 0 90 23 246 51 346 26
96 107 256 174 345 163 217 373 347 690 425 28 7 111 14 185 17 149 6 300 -12
413 -49 76 -24 222 -99 261 -133 16 -14 33 -25 37 -25 13 0 118 -97 185 -171
146 -163 248 -393 279 -634 7 -60 9 -63 56 -98 32 -24 45 -27 112 -27 147 0
161 18 146 185 -6 66 -22 163 -36 215 -95 348 -388 706 -738 899 -146 80 -261
118 -444 147 -114 17 -344 17 -461 -1z"/>
<path d="M11107 12703 c-2 -5 -12 -44 -22 -87 -14 -67 -15 -88 -5 -140 7 -33
20 -76 30 -96 28 -54 115 -129 225 -194 55 -32 137 -83 182 -112 46 -30 86
-54 89 -54 4 0 29 -16 55 -35 27 -19 51 -35 53 -35 3 0 53 -32 113 -72 59 -39
131 -85 158 -102 l50 -30 284 -4 c163 -2 287 0 292 5 9 9 -50 54 -130 99 -21
11 -82 51 -135 87 -54 37 -100 67 -102 67 -2 0 -48 28 -102 63 -53 35 -137 89
-187 121 -49 32 -182 118 -295 192 -113 74 -212 137 -220 141 -8 4 -37 21 -65
38 -61 39 -212 128 -242 144 -12 6 -24 8 -26 4z"/>
<path d="M10035 11940 c-272 -41 -601 -194 -781 -363 -214 -200 -293 -434
-264 -778 15 -179 60 -309 162 -471 38 -60 49 -85 46 -110 l-3 -33 -110 -11
c-126 -13 -252 -42 -376 -84 -48 -17 -93 -30 -102 -30 -8 0 -17 -3 -19 -7 -1
-5 -34 -24 -73 -43 -38 -19 -90 -50 -115 -70 -60 -46 -153 -145 -182 -193 -13
-21 -33 -54 -45 -73 -13 -19 -23 -40 -23 -47 0 -7 -10 -37 -22 -67 -18 -46
-22 -76 -22 -185 -1 -141 17 -221 72 -330 58 -116 195 -251 315 -311 29 -15
59 -32 67 -38 14 -11 104 -48 240 -98 61 -22 139 -53 185 -73 17 -7 59 -23 95
-35 36 -13 88 -33 115 -45 28 -12 75 -33 105 -46 30 -13 64 -30 75 -38 11 -9
41 -27 68 -40 105 -53 225 -194 241 -284 3 -16 11 -36 18 -44 23 -28 16 -168
-13 -241 -24 -63 -34 -76 -124 -161 -43 -40 -158 -106 -230 -132 -11 -4 -33
-12 -50 -18 -119 -42 -391 -64 -519 -41 -99 17 -286 81 -353 121 -55 34 -150
120 -179 164 -18 27 -10 66 17 91 19 17 21 17 47 0 15 -9 51 -28 80 -42 134
-62 297 2 371 146 27 53 31 72 31 136 0 94 -30 163 -100 231 -46 44 -56 49
-137 65 -113 22 -225 23 -288 1 -85 -28 -182 -141 -222 -256 -22 -63 -25 -83
-20 -162 8 -128 32 -198 103 -300 82 -117 157 -174 314 -237 95 -39 185 -56
375 -74 173 -16 306 -12 567 17 244 26 509 172 622 343 81 122 109 249 110
491 1 181 -10 231 -70 331 -54 90 -180 201 -321 282 -35 20 -63 40 -63 44 0 4
-6 8 -14 8 -7 0 -51 18 -97 39 -46 22 -127 55 -180 74 -53 20 -105 40 -115 45
-11 6 -39 16 -64 22 -133 36 -364 147 -463 221 -76 58 -132 127 -168 209 -31
72 -34 229 -6 299 43 105 117 171 242 217 259 94 650 98 826 9 126 -64 234
-214 184 -255 -13 -11 -25 -8 -73 15 -98 48 -119 55 -180 56 -120 3 -211 -50
-263 -154 -29 -56 -31 -66 -27 -151 5 -139 54 -216 175 -276 64 -33 74 -34
173 -34 85 0 113 4 150 21 107 50 191 141 225 243 10 30 20 96 23 147 4 81 1
103 -24 183 -41 136 -134 244 -269 312 -88 45 -219 143 -295 220 -160 162
-244 330 -270 542 -27 214 43 449 184 616 38 46 140 135 191 168 53 34 207
112 222 112 6 0 27 9 45 19 57 34 140 56 308 81 118 18 209 12 440 -29 108
-19 265 -86 382 -162 77 -51 185 -152 238 -224 129 -176 190 -433 161 -671
-31 -251 -142 -496 -253 -556 -22 -13 -51 -29 -64 -36 -45 -25 -135 -42 -252
-49 -103 -6 -119 -9 -139 -29 -28 -29 -29 -58 -3 -84 34 -34 65 -40 192 -40
140 0 172 -12 188 -70 6 -22 10 -424 10 -1065 0 -1155 -2 -1117 71 -1264 46
-95 135 -193 202 -224 20 -9 52 -24 70 -32 52 -23 163 -33 247 -23 120 16 291
80 365 139 105 82 209 223 291 393 47 97 48 98 33 139 -11 33 -20 42 -48 50
-28 7 -39 5 -60 -11 -30 -22 -107 -117 -120 -147 -15 -36 -117 -180 -162 -229
-114 -125 -260 -140 -314 -31 -20 39 -20 63 -23 1177 l-3 1137 30 33 29 33
280 5 c257 5 282 7 301 24 33 30 28 72 -11 96 -30 18 -52 20 -253 21 -269 1
-321 7 -350 41 -21 25 -22 36 -28 339 -7 335 -20 476 -60 629 -118 457 -478
757 -1022 856 -85 15 -331 17 -420 4z"/>
<path d="M13671 11852 c-5 -15 -24 -72 -42 -127 -86 -276 -123 -381 -137 -392
-12 -10 -87 -13 -294 -13 -250 0 -311 -5 -263 -23 21 -9 306 -216 331 -241 11
-11 38 -30 59 -41 71 -37 79 5 -92 -508 -14 -43 -23 -81 -19 -84 3 -4 19 3 34
15 15 13 41 29 58 37 17 7 37 22 45 31 17 21 93 79 220 166 30 21 66 48 81 59
l27 22 33 -20 c33 -20 247 -174 323 -233 92 -72 118 -90 122 -86 5 5 4 8 -68
226 -65 197 -79 250 -79 305 0 41 18 75 40 75 5 0 17 8 27 18 22 23 270 202
281 202 4 1 27 19 52 40 l45 40 -45 1 c-25 1 -152 0 -283 -1 -168 -1 -241 1
-251 9 -8 7 -38 85 -66 174 -29 89 -65 201 -81 250 -16 48 -29 94 -29 102 0
26 -18 25 -29 -3z"/>
<path d="M3660 11413 c-14 -3 -30 -9 -36 -14 -24 -19 -163 -32 -429 -38 -290
-6 -335 -13 -343 -52 -5 -28 48 -42 181 -49 144 -7 167 -17 202 -86 20 -39 20
-59 20 -1806 l0 -1767 -21 -28 c-35 -48 -78 -62 -199 -66 -87 -2 -116 -6 -137
-21 -36 -24 -36 -52 2 -71 24 -13 88 -15 408 -15 255 0 390 4 413 11 37 13
116 82 125 111 4 12 15 18 38 18 24 0 41 -10 71 -41 79 -82 230 -163 355 -190
134 -29 441 -25 563 6 96 25 237 95 313 157 192 154 345 445 413 783 59 290
51 671 -19 1005 -12 58 -26 113 -31 122 -5 9 -9 24 -9 32 0 31 -99 245 -146
317 -128 194 -334 352 -529 404 -90 25 -263 30 -365 11 -113 -20 -209 -45
-223 -57 -7 -5 -53 -36 -103 -68 -60 -39 -112 -83 -155 -132 -104 -118 -105
-119 -142 -119 -18 0 -42 6 -53 14 -19 14 -19 31 -15 778 3 718 3 767 -14 802
-24 50 -58 63 -135 49z m988 -1482 c72 -36 174 -135 220 -213 41 -69 74 -159
96 -263 10 -44 21 -96 26 -115 14 -51 38 -240 51 -387 14 -152 6 -438 -16
-603 -35 -263 -32 -246 -69 -425 -57 -267 -114 -345 -325 -439 -14 -6 -90 -11
-180 -11 -154 0 -157 0 -221 31 -37 17 -88 48 -114 68 -103 78 -218 258 -257
401 -4 17 -13 48 -19 70 -54 200 -77 634 -45 871 47 358 158 665 298 829 64
75 181 170 229 185 24 8 54 20 68 28 18 9 50 12 111 8 70 -4 98 -10 147 -35z"/>
<path d="M2610 10889 c-41 -4 -95 -14 -120 -20 -88 -22 -185 -51 -202 -60 -10
-5 -23 -9 -30 -9 -26 0 -229 -99 -296 -144 -39 -25 -72 -46 -74 -46 -12 0
-167 -154 -206 -205 -25 -33 -50 -62 -54 -65 -8 -6 -36 -58 -93 -170 -85 -166
-139 -392 -151 -635 -10 -190 23 -439 76 -580 57 -150 80 -203 118 -275 25
-47 51 -89 58 -95 6 -5 29 -35 51 -65 94 -129 276 -286 403 -347 33 -16 223
-90 280 -110 25 -8 68 -25 95 -37 28 -13 77 -33 110 -46 33 -13 87 -35 120
-50 195 -88 257 -112 271 -106 15 6 16 18 10 99 -15 221 -113 373 -302 470
-27 14 -124 62 -216 107 -92 44 -183 94 -202 110 -18 17 -37 30 -41 30 -16 0
-147 128 -192 188 -138 183 -202 347 -234 594 -22 175 21 399 113 585 70 139
224 311 312 348 20 8 36 20 36 25 0 13 94 60 120 60 11 0 20 4 20 10 0 15 151
58 247 70 48 7 131 10 183 8 l95 -3 3 183 2 182 -89 0 c-48 0 -101 2 -117 4
-16 2 -63 0 -104 -5z"/>
<path d="M6259 10192 c-38 -4 -60 -33 -61 -79 -1 -88 21 -102 125 -84 141 25
229 8 244 -47 5 -15 8 -581 8 -1259 0 -1229 0 -1232 -21 -1259 -29 -39 -55
-43 -199 -32 -112 9 -129 8 -143 -6 -21 -21 -18 -114 3 -136 20 -19 90 -19
388 0 198 12 257 12 445 -1 315 -21 329 -20 358 14 28 33 30 66 8 108 l-15 30
-97 -8 c-143 -12 -210 -9 -228 8 -43 44 -44 62 -44 1285 0 833 3 1177 11 1218
18 87 39 100 159 92 52 -3 116 -9 142 -12 45 -6 48 -5 67 27 39 64 18 123 -49
138 -19 4 -84 3 -145 -3 -136 -12 -683 -12 -825 0 -58 5 -117 8 -131 6z"/>
<path d="M13465 10154 c-49 -7 -110 -19 -135 -25 -64 -17 -236 -88 -293 -121
-26 -15 -51 -28 -55 -28 -4 0 -42 -34 -84 -75 -149 -146 -202 -326 -153 -520
25 -101 85 -197 151 -241 65 -43 146 -72 223 -80 72 -8 176 22 238 69 162 124
158 435 -8 536 -27 17 -56 31 -65 31 -8 0 -24 4 -34 10 -24 13 -129 -9 -188
-39 -23 -12 -54 -35 -69 -51 -33 -37 -59 -46 -78 -26 -23 23 -18 52 21 114 90
140 188 214 343 258 40 11 118 17 266 21 283 7 366 -13 472 -110 85 -78 173
-236 201 -362 19 -84 32 -249 32 -417 0 -230 4 -227 -245 -248 -71 -6 -209
-19 -305 -30 -96 -11 -220 -20 -275 -21 -55 -2 -104 -6 -110 -9 -5 -4 -28 -10
-50 -14 -183 -31 -438 -158 -554 -276 -57 -58 -127 -166 -156 -241 -56 -141
-55 -355 2 -504 29 -74 111 -193 168 -244 95 -83 251 -166 366 -195 169 -42
423 -44 646 -5 246 43 342 108 489 332 24 37 50 67 57 67 8 0 22 -9 31 -19 21
-23 76 -173 76 -206 0 -13 4 -25 10 -27 5 -1 38 -31 73 -66 70 -67 108 -88
202 -108 77 -17 180 -3 250 34 84 45 187 160 239 266 100 207 157 497 123 637
-8 35 -25 107 -37 159 -26 111 -63 200 -83 200 -18 0 -27 -88 -27 -281 0 -85
-6 -180 -14 -225 -8 -44 -18 -106 -22 -139 -16 -147 -91 -331 -149 -366 -39
-24 -87 -24 -116 0 -24 19 -24 23 -31 268 -4 136 -7 457 -6 713 1 582 -9 706
-84 1000 -65 260 -201 420 -428 504 -114 42 -119 44 -205 65 -190 47 -445 62
-620 35z m730 -1470 c46 -21 53 -49 61 -227 8 -211 -22 -425 -81 -562 -7 -16
-19 -45 -26 -64 -46 -120 -199 -286 -307 -332 -66 -29 -175 -42 -281 -35 -78
5 -104 11 -165 40 -181 87 -286 281 -286 529 0 125 11 169 70 290 90 182 258
306 471 346 79 15 248 28 397 30 86 1 122 -3 147 -15z"/>
<path d="M17035 10147 c-134 -36 -255 -124 -400 -294 -58 -68 -113 -123 -121
-123 -37 0 -44 25 -44 158 0 125 -1 130 -25 155 -14 13 -37 27 -52 30 -50 9
-817 -4 -846 -15 -36 -14 -50 -40 -37 -72 16 -44 46 -53 182 -59 136 -6 158
-13 186 -54 16 -25 17 -97 20 -1078 2 -577 0 -1083 -3 -1122 -6 -60 -11 -78
-34 -102 -30 -32 -56 -40 -205 -64 -120 -19 -150 -39 -122 -81 l17 -26 637 5
c575 5 638 7 650 22 37 49 -2 68 -168 83 -151 13 -173 22 -204 85 -19 38 -19
52 -8 490 7 247 12 527 12 622 0 267 29 486 92 678 34 106 128 303 172 360
100 131 183 205 281 251 68 32 237 34 316 5 73 -28 89 -46 89 -97 0 -59 -30
-74 -137 -67 -184 13 -305 -60 -350 -210 -35 -117 26 -261 141 -335 52 -33
158 -71 188 -66 160 22 218 42 299 101 52 37 79 85 124 220 39 119 31 198 -35
338 -37 76 -88 132 -179 191 -31 21 -69 46 -84 56 -37 25 -275 35 -352 15z"/>
<path d="M16766 8752 c-5 -8 38 -38 214 -147 106 -66 190 -119 330 -210 52
-34 169 -108 260 -165 179 -113 323 -205 583 -372 23 -15 49 -31 58 -35 8 -5
67 -42 130 -84 62 -41 146 -95 184 -120 152 -95 255 -214 290 -333 35 -124 17
-318 -42 -442 -32 -69 -163 -211 -202 -221 -14 -3 -40 -17 -57 -30 -17 -12
-35 -23 -41 -23 -5 0 -23 -7 -39 -15 -72 -35 -264 -45 -954 -48 l-665 -2 -3
-42 c-2 -31 5 -56 27 -100 41 -79 66 -106 134 -147 95 -57 115 -58 887 -54
687 3 696 3 742 25 103 47 228 162 332 303 132 180 206 404 206 625 0 175 -35
306 -118 445 -63 106 -148 194 -291 301 -61 45 -111 86 -111 90 0 4 -9 9 -19
12 -10 2 -78 42 -150 88 -73 46 -139 89 -149 94 -18 10 -213 139 -291 191 -24
16 -58 38 -75 48 -136 83 -280 174 -491 312 l-90 59 -292 2 c-161 2 -294 -1
-297 -5z"/>
<path d="M1885 7341 c-15 -26 -27 -189 -22 -311 9 -220 57 -355 189 -540 181
-252 244 -300 423 -320 73 -8 1488 -10 5215 -8 l5115 3 0 50 c-1 112 -101 228
-240 279 -22 8 -1375 12 -4980 16 -4729 5 -4953 6 -5010 23 -184 55 -319 187
-380 371 -37 111 -44 243 -19 341 9 33 18 70 21 83 l5 22 -155 0 c-86 0 -158
-4 -162 -9z"/>
<path d="M16230 7070 c-25 -5 -58 -13 -73 -19 -16 -6 -39 -11 -52 -11 -13 0
-28 -6 -32 -13 -4 -7 -30 -28 -57 -47 -87 -59 -159 -152 -221 -286 -19 -40
-38 -75 -44 -79 -6 -3 -11 -16 -11 -28 0 -28 -86 -197 -140 -277 -35 -52 -128
-152 -210 -226 -42 -39 -129 -94 -209 -134 -189 -96 -351 -135 -556 -133 -90
1 -163 8 -205 18 -36 8 -82 19 -102 24 -47 10 -148 51 -168 66 -8 7 -32 18
-53 25 -89 28 -287 207 -372 335 -47 72 -106 206 -129 295 -9 36 -22 121 -28
190 -13 157 -32 204 -91 231 -114 51 -250 -11 -291 -134 -9 -26 -16 -63 -16
-82 0 -42 28 -230 39 -265 5 -14 14 -45 22 -70 84 -296 215 -527 385 -680 83
-75 135 -120 140 -120 2 0 30 -17 61 -37 108 -70 285 -141 439 -178 38 -9 78
-18 89 -21 255 -61 604 -39 900 57 281 92 544 277 711 501 93 124 113 165 210
417 82 216 164 416 223 545 37 81 37 86 10 120 -18 22 -27 26 -72 25 -29 -1
-72 -5 -97 -9z"/>
</g>
</svg>
